<svg width="50" height="50" viewBox="0 0 50 50" fill="none" xmlns="http://www.w3.org/2000/svg">
<path d="M50 25C50 31.6304 47.3661 37.9893 42.6777 42.6777C37.9893 47.3661 31.6304 50 25 50C18.3696 50 12.0107 47.3661 7.32233 42.6777C2.63392 37.9893 0 31.6304 0 25C0 18.3696 2.63392 12.0107 7.32233 7.32233C12.0107 2.63392 18.3696 0 25 0C31.6304 0 37.9893 2.63392 42.6777 7.32233C47.3661 12.0107 50 18.3696 50 25ZM16.7313 14.5187C16.4379 14.2254 16.0399 14.0605 15.625 14.0605C15.2101 14.0605 14.8121 14.2254 14.5187 14.5187C14.2254 14.8121 14.0605 15.2101 14.0605 15.625C14.0605 16.0399 14.2254 16.4379 14.5187 16.7313L22.7906 25L14.5187 33.2687C14.3735 33.414 14.2582 33.5865 14.1796 33.7763C14.101 33.9661 14.0605 34.1696 14.0605 34.375C14.0605 34.5804 14.101 34.7839 14.1796 34.9737C14.2582 35.1635 14.3735 35.336 14.5187 35.4813C14.8121 35.7746 15.2101 35.9395 15.625 35.9395C15.8304 35.9395 16.0339 35.899 16.2237 35.8204C16.4135 35.7418 16.586 35.6265 16.7313 35.4813L25 27.2094L33.2687 35.4813C33.414 35.6265 33.5865 35.7418 33.7763 35.8204C33.9661 35.899 34.1696 35.9395 34.375 35.9395C34.5804 35.9395 34.7839 35.899 34.9737 35.8204C35.1635 35.7418 35.336 35.6265 35.4813 35.4813C35.6265 35.336 35.7418 35.1635 35.8204 34.9737C35.899 34.7839 35.9395 34.5804 35.9395 34.375C35.9395 34.1696 35.899 33.9661 35.8204 33.7763C35.7418 33.5865 35.6265 33.414 35.4813 33.2687L27.2094 25L35.4813 16.7313C35.6265 16.586 35.7418 16.4135 35.8204 16.2237C35.899 16.0339 35.9395 15.8304 35.9395 15.625C35.9395 15.4196 35.899 15.2161 35.8204 15.0263C35.7418 14.8365 35.6265 14.664 35.4813 14.5187C35.336 14.3735 35.1635 14.2582 34.9737 14.1796C34.7839 14.101 34.5804 14.0605 34.375 14.0605C34.1696 14.0605 33.9661 14.101 33.7763 14.1796C33.5865 14.2582 33.414 14.3735 33.2687 14.5187L25 22.7906L16.7313 14.5187Z" fill="white"/>
</svg>
