<svg width="50" height="47" viewBox="0 0 50 47" fill="none" xmlns="http://www.w3.org/2000/svg">
<path fill-rule="evenodd" clip-rule="evenodd" d="M25 29.375C25.4144 29.375 25.8118 29.2203 26.1049 28.9448C26.3979 28.6694 26.5625 28.2958 26.5625 27.9062V10.8893L33.2687 17.1961C33.414 17.3327 33.5865 17.441 33.7763 17.5149C33.9661 17.5888 34.1695 17.6269 34.375 17.6269C34.5805 17.6269 34.7839 17.5888 34.9737 17.5149C35.1635 17.441 35.336 17.3327 35.4813 17.1961C35.6265 17.0596 35.7418 16.8975 35.8204 16.719C35.899 16.5406 35.9395 16.3494 35.9395 16.1563C35.9395 15.9631 35.899 15.7719 35.8204 15.5935C35.7418 15.4151 35.6265 15.2529 35.4813 15.1164L26.1063 6.30388C25.9611 6.1671 25.7887 6.05858 25.5989 5.98453C25.409 5.91049 25.2055 5.87238 25 5.87238C24.7945 5.87238 24.591 5.91049 24.4011 5.98453C24.2113 6.05858 24.0389 6.1671 23.8937 6.30388L14.5187 15.1164C14.2254 15.3922 14.0605 15.7662 14.0605 16.1563C14.0605 16.5463 14.2254 16.9203 14.5187 17.1961C14.8121 17.4719 15.2101 17.6269 15.625 17.6269C16.0399 17.6269 16.4379 17.4719 16.7313 17.1961L23.4375 10.8893V27.9062C23.4375 28.2958 23.6021 28.6694 23.8951 28.9448C24.1882 29.2203 24.5856 29.375 25 29.375ZM3.125 36.7188C3.125 36.3292 3.28962 35.9556 3.58265 35.6802C3.87567 35.4047 4.2731 35.25 4.6875 35.25H45.3125C45.7269 35.25 46.1243 35.4047 46.4174 35.6802C46.7104 35.9556 46.875 36.3292 46.875 36.7188C46.875 37.1083 46.7104 37.4819 46.4174 37.7573C46.1243 38.0328 45.7269 38.1875 45.3125 38.1875H4.6875C4.2731 38.1875 3.87567 38.0328 3.58265 37.7573C3.28962 37.4819 3.125 37.1083 3.125 36.7188Z" fill="white"/>
</svg>
